<?xml version="1.0" encoding="UTF-8" standalone="no"?>
<!-- Created with Inkscape (http://www.inkscape.org/) -->

<svg
   xmlns:dc="http://purl.org/dc/elements/1.1/"
   xmlns:cc="http://creativecommons.org/ns#"
   xmlns:rdf="http://www.w3.org/1999/02/22-rdf-syntax-ns#"
   xmlns:svg="http://www.w3.org/2000/svg"
   xmlns="http://www.w3.org/2000/svg"
   xmlns:sodipodi="http://sodipodi.sourceforge.net/DTD/sodipodi-0.dtd"
   xmlns:inkscape="http://www.inkscape.org/namespaces/inkscape"
   version="1.1"
   id="svg6554"
   width="72.400002"
   height="72.400002"
   viewBox="0 0 72.400002 72.400002"
   sodipodi:docname="emailIcon.svg"
   inkscape:version="0.92.2 5c3e80d, 2017-08-06">
  <metadata
     id="metadata6560">
    <rdf:RDF>
      <cc:Work
         rdf:about="">
        <dc:format>image/svg+xml</dc:format>
        <dc:type
           rdf:resource="http://purl.org/dc/dcmitype/StillImage" />
        <dc:title></dc:title>
      </cc:Work>
    </rdf:RDF>
  </metadata>
  <defs
     id="defs6558" />
  <sodipodi:namedview
     pagecolor="#ffffff"
     bordercolor="#666666"
     borderopacity="1"
     objecttolerance="10"
     gridtolerance="10"
     guidetolerance="10"
     inkscape:pageopacity="0"
     inkscape:pageshadow="2"
     inkscape:window-width="1449"
     inkscape:window-height="892"
     id="namedview6556"
     showgrid="false"
     inkscape:zoom="6.5193369"
     inkscape:cx="13.071481"
     inkscape:cy="34.610689"
     inkscape:window-x="0"
     inkscape:window-y="0"
     inkscape:window-maximized="0"
     inkscape:current-layer="svg6554" />
  <path
     style="fill:#45914e;stroke-width:0.40000001;fill-opacity:1"
     d="M 29.05679,72.166369 C 26.243074,71.718505 20.849091,69.759301 17.927991,68.124165 11.730024,64.654741 5.9289005,58.287381 3.2053592,51.964484 1.5179762,48.047104 1.1109383,46.591508 0.45817623,42.140376 -0.1036595,38.309265 -0.1306815,37.059436 0.27810666,33.811751 1.3540698,25.263582 4.3756144,18.816279 10.017747,13.029531 16.938165,5.9317306 25.109642,2.4376026 34.879353,2.3986946 c 9.713316,-0.03868 18.007344,3.313359 24.771769,10.0115444 8.707976,8.622705 12.324312,20.914079 9.636876,32.754245 -2.31646,10.205744 -9.021412,18.856929 -18.265701,23.567645 -5.220328,2.660184 -8.416748,3.45962 -14.542944,3.637244 -2.86,0.08292 -6.200154,-0.0084 -7.422563,-0.203004 z M 56.347858,52.702488 C 57.031266,52.084012 57.079354,51.07314 57.079354,37.32517 V 22.609847 L 56.19035,21.987165 c -0.77628,-0.543728 -3.464349,-0.622681 -21.199999,-0.622681 -19.777665,0 -20.332005,0.02101 -21.110999,0.8 -0.77051,0.77051 -0.8,1.333333 -0.8,15.268504 0,12.901764 0.07169,14.547716 0.661996,15.2 0.62501,0.690628 1.813249,0.731496 21.268504,0.731496 18.613246,0 20.677266,-0.06404 21.338006,-0.661996 z M 21.479353,49.18618 c 0,-0.09807 2.101919,-2.08244 4.670932,-4.409716 l 4.670931,-4.231414 1.229069,1.161718 c 1.291386,1.220624 2.679292,2.057716 3.411709,2.057716 0.239378,0 1.240821,-0.742564 2.225427,-1.650144 l 1.790192,-1.650141 4.300872,3.925741 c 2.365476,2.15916 4.56444,4.161724 4.886584,4.450144 0.48442,0.433712 -1.815656,0.5244 -13.300002,0.5244 -7.637143,0 -13.885714,-0.08024 -13.885714,-0.178304 z m -4,-11.170817 v -9.106055 l 3.1,2.685609 c 1.705,1.477085 3.980522,3.500585 5.056716,4.496668 l 1.956715,1.811059 -1.756715,1.599267 c -0.966194,0.879597 -2.656716,2.410377 -3.756716,3.401733 -1.1,0.99136 -2.585,2.345912 -3.3,3.01012 l -1.3,1.207652 z m 30.394156,4.518465 c -2.526788,-2.216862 -4.76448,-4.196187 -4.972656,-4.398502 -0.236252,-0.229597 -0.137568,-0.556324 0.262564,-0.869343 0.923124,-0.722148 5.354276,-4.604281 7.597572,-6.656236 l 1.918364,-1.754737 v 8.854737 c 0,4.870105 -0.04763,8.854737 -0.105844,8.854737 -0.05822,0 -2.173216,-1.813796 -4.7,-4.030656 z M 30.079353,34.405975 c -2.64,-2.28402 -5.79,-5.064556 -7,-6.17897 l -2.2,-2.026207 14.123607,-0.01816 c 9.546317,-0.01227 14.041501,0.114694 13.870257,0.391769 -0.386472,0.625328 -13.384402,11.990482 -13.70934,11.9872 -0.156488,-0.0016 -2.444524,-1.871617 -5.084524,-4.155636 z"
     id="path6564"
     inkscape:connector-curvature="0" />
</svg>
