<?xml version="1.0" encoding="UTF-8" standalone="no"?>
<!-- Created with Inkscape (http://www.inkscape.org/) -->

<svg
   xmlns:dc="http://purl.org/dc/elements/1.1/"
   xmlns:cc="http://creativecommons.org/ns#"
   xmlns:rdf="http://www.w3.org/1999/02/22-rdf-syntax-ns#"
   xmlns:svg="http://www.w3.org/2000/svg"
   xmlns="http://www.w3.org/2000/svg"
   xmlns:sodipodi="http://sodipodi.sourceforge.net/DTD/sodipodi-0.dtd"
   xmlns:inkscape="http://www.inkscape.org/namespaces/inkscape"
   version="1.1"
   id="svg5908"
   width="241.33333"
   height="241.33333"
   viewBox="0 0 241.33333 241.33333"
   sodipodi:docname="homeIcon.svg"
   inkscape:version="0.92.2 5c3e80d, 2017-08-06">
  <metadata
     id="metadata5914">
    <rdf:RDF>
      <cc:Work
         rdf:about="">
        <dc:format>image/svg+xml</dc:format>
        <dc:type
           rdf:resource="http://purl.org/dc/dcmitype/StillImage" />
        <dc:title />
      </cc:Work>
    </rdf:RDF>
  </metadata>
  <defs
     id="defs5912" />
  <sodipodi:namedview
     pagecolor="#ffffff"
     bordercolor="#666666"
     borderopacity="1"
     objecttolerance="10"
     gridtolerance="10"
     guidetolerance="10"
     inkscape:pageopacity="0"
     inkscape:pageshadow="2"
     inkscape:window-width="1440"
     inkscape:window-height="878"
     id="namedview5910"
     showgrid="false"
     inkscape:zoom="1.9558011"
     inkscape:cx="-73.269434"
     inkscape:cy="76.164262"
     inkscape:window-x="0"
     inkscape:window-y="0"
     inkscape:window-maximized="1"
     inkscape:current-layer="svg5908" />
  <path
     style="fill:#45914e;stroke-width:1.33333337;fill-opacity:1"
     d="M 100.07869,241.00005 C 51.649647,231.61228 15.064764,197.90597 3.402038,151.93014 -0.56275764,136.30046 -1.1346616,113.11346 2.0689934,97.883815 9.8478478,60.904428 36.218213,28.146005 70.454892,12.931854 93.425532,2.7241237 123.93484,0.17725473 148.52388,6.4147777 c 34.7646,8.8187633 63.19093,32.0961733 78.26613,64.0896133 9.78175,20.759394 11.21083,27.284024 11.24345,51.333329 0.032,23.64641 -1.70141,32.39968 -9.93333,50.15844 -12.40148,26.7538 -31.51371,46.1335 -57.81457,58.62374 -16.91298,8.03194 -26.03184,10.05911 -47.5402,10.56846 -10.63333,0.25181 -20.83333,0.16708 -22.66667,-0.18831 z m 5.33334,-70.49567 v -15.33333 h 14.66666 14.66667 v 15.33333 15.33334 h 21.33333 21.33333 V 157.2441 128.65049 l 5.82488,-0.40638 5.8249,-0.40639 -34.42856,-33.739125 -34.42856,-33.739121 -34.548413,33.739121 -34.548409,33.739125 6.485415,0.40301 6.485415,0.40301 v 28.59699 28.59699 H 84.745355 105.41203 Z M 166.74536,78.504395 V 64.504391 h -8 -8 v 6.29467 c 0,5.871934 0.51208,6.812144 7.62493,14.000004 4.19371,4.23793 7.79371,7.70533 8,7.70533 0.20628,0 0.37507,-6.3 0.37507,-14 z"
     id="path5918"
     inkscape:connector-curvature="0" />
  <path
     style="fill:#ffffff;fill-opacity:1;stroke-width:0.51129943"
     d="m 64.065594,157.03748 v -28.58357 l -5.496468,-0.33396 c -3.023058,-0.18368 -5.813774,-0.37839 -6.20159,-0.43268 -0.708915,-0.0992 67.059014,-66.567639 67.869104,-66.567639 0.23826,0 15.68649,14.955508 34.32939,33.234463 l 33.89619,33.234466 -5.69972,0.43939 -5.69973,0.4394 v 28.57685 28.57684 h -20.96328 -20.96327 v -15.33898 -15.33898 h -15.08334 -15.08333 v 15.33898 15.33898 H 84.517572 64.065594 Z"
     id="path2592"
     inkscape:connector-curvature="0" />
  <path
     style="fill:#ffffff;fill-opacity:1;stroke-width:0.51129943"
     d="m 159.54844,85.513423 c -7.85245,-7.936126 -8.53497,-9.199649 -8.55071,-15.829526 l -0.0112,-4.72952 h 7.66949 7.66949 v 13.549435 c 0,7.452189 -0.0689,13.549435 -0.15308,13.549435 -0.0842,0 -3.06498,-2.942921 -6.62396,-6.539824 z"
     id="path2594"
     inkscape:connector-curvature="0" />
</svg>
