<?xml version="1.0" encoding="UTF-8" standalone="no"?>
<!-- Created with Inkscape (http://www.inkscape.org/) -->

<svg
   xmlns:dc="http://purl.org/dc/elements/1.1/"
   xmlns:cc="http://creativecommons.org/ns#"
   xmlns:rdf="http://www.w3.org/1999/02/22-rdf-syntax-ns#"
   xmlns:svg="http://www.w3.org/2000/svg"
   xmlns="http://www.w3.org/2000/svg"
   xmlns:sodipodi="http://sodipodi.sourceforge.net/DTD/sodipodi-0.dtd"
   xmlns:inkscape="http://www.inkscape.org/namespaces/inkscape"
   version="1.1"
   id="svg5278"
   width="181"
   height="181"
   viewBox="0 0 181 181"
   sodipodi:docname="linkedinIcon.svg"
   inkscape:version="0.92.2 5c3e80d, 2017-08-06">
  <metadata
     id="metadata5284">
    <rdf:RDF>
      <cc:Work
         rdf:about="">
        <dc:format>image/svg+xml</dc:format>
        <dc:type
           rdf:resource="http://purl.org/dc/dcmitype/StillImage" />
        <dc:title></dc:title>
      </cc:Work>
    </rdf:RDF>
  </metadata>
  <defs
     id="defs5282" />
  <sodipodi:namedview
     pagecolor="#ffffff"
     bordercolor="#666666"
     borderopacity="1"
     objecttolerance="10"
     gridtolerance="10"
     guidetolerance="10"
     inkscape:pageopacity="0"
     inkscape:pageshadow="2"
     inkscape:window-width="1443"
     inkscape:window-height="884"
     id="namedview5280"
     showgrid="false"
     inkscape:zoom="3.1135054"
     inkscape:cx="37.610226"
     inkscape:cy="90.116525"
     inkscape:window-x="0"
     inkscape:window-y="0"
     inkscape:window-maximized="0"
     inkscape:current-layer="svg5278" />
  <path
     style="fill:#45914e;fill-opacity:1"
     d="M 78.990397,180.65443 C 46.484017,178.30346 16.160281,154.33238 4.8955563,122.08205 -6.4881461,89.491075 2.3815952,52.722275 27.335988,29.057018 39.550458,17.473545 52.410543,10.518503 68.589715,6.7460131 c 10.550739,-2.46011 28.262273,-2.660704 38.088635,-0.431375 34.8701,7.9110619 60.41963,33.6971389 68.31058,68.9430369 0.61426,2.74367 1.10272,11.06867 1.08546,18.5 -0.0267,11.519465 -0.41277,14.820055 -2.61826,22.387045 -6.28432,21.56137 -18.54071,38.67521 -35.96573,50.21967 -17.52466,11.61047 -35.34869,15.96442 -58.500003,14.29004 z m -13,-75.88525 V 73.769175 h -10.5 -10.5 v 30.333335 c 0,16.68334 0.3,30.63334 0.666667,31 0.366666,0.36667 5.091666,0.66667 10.5,0.66667 h 9.833333 z m 31.393011,29.41821 c 0.333844,-0.86998 0.606989,-9.9046 0.606989,-20.07692 V 95.615325 l 2.923083,-2.92308 c 2.11566,-2.11566 3.8885,-2.92307 6.41821,-2.92307 8.58649,0 9.05193,1.22881 9.65871,25.500005 l 0.5,20 h 10.5 10.5 l -0.0121,-22.5 c -0.0111,-20.677655 -0.18079,-22.864475 -2.09516,-27.000005 -4.36643,-9.4326 -14.31451,-14.98855 -24.18684,-13.50824 -5.54351,0.83122 -7.73803,1.84985 -11.45593,5.31751 -1.512503,1.4107 -2.80191,2.14322 -2.865353,1.62782 -0.06341,-0.5154 -0.219871,-1.38709 -0.347655,-1.93709 -0.127785,-0.55 -0.300878,-1.57825 -0.384651,-2.28499 -0.115468,-0.97413 -2.631891,-1.21604 -10.402314,-1 l -10.25,0.28499 -0.265484,29.488465 c -0.146016,16.21865 -0.04764,30.05615 0.218616,30.75 0.344643,0.89812 3.343044,1.26154 10.408494,1.26154 8.127261,0 10.034312,-0.28643 10.531385,-1.58179 z M 61.691848,64.809655 c 4.804908,-2.92972 6.798535,-7.42831 5.384123,-12.1492 -1.78863,-5.969916 -5.379088,-8.173025 -12.490161,-7.66398 -5.070038,0.362938 -6.235385,0.836098 -8.245033,3.347688 -2.539982,3.174382 -3.144851,9.072012 -1.286558,12.544262 1.516299,2.83323 6.918127,5.87327 10.436178,5.87327 1.65,0 4.440653,-0.87842 6.201451,-1.95204 z"
     id="path5288"
     inkscape:connector-curvature="0" />
</svg>
