<?xml version="1.0" encoding="UTF-8" standalone="no"?>
<!-- Created with Inkscape (http://www.inkscape.org/) -->

<svg
   xmlns:dc="http://purl.org/dc/elements/1.1/"
   xmlns:cc="http://creativecommons.org/ns#"
   xmlns:rdf="http://www.w3.org/1999/02/22-rdf-syntax-ns#"
   xmlns:svg="http://www.w3.org/2000/svg"
   xmlns="http://www.w3.org/2000/svg"
   xmlns:sodipodi="http://sodipodi.sourceforge.net/DTD/sodipodi-0.dtd"
   xmlns:inkscape="http://www.inkscape.org/namespaces/inkscape"
   version="1.1"
   id="svg4664"
   width="241.33333"
   height="241.33333"
   viewBox="0 0 241.33333 241.33333"
   sodipodi:docname="phoneIcon.svg"
   inkscape:version="0.92.2 5c3e80d, 2017-08-06">
  <metadata
     id="metadata4670">
    <rdf:RDF>
      <cc:Work
         rdf:about="">
        <dc:format>image/svg+xml</dc:format>
        <dc:type
           rdf:resource="http://purl.org/dc/dcmitype/StillImage" />
        <dc:title />
      </cc:Work>
    </rdf:RDF>
  </metadata>
  <defs
     id="defs4668" />
  <sodipodi:namedview
     pagecolor="#ffffff"
     bordercolor="#666666"
     borderopacity="1"
     objecttolerance="10"
     gridtolerance="10"
     guidetolerance="10"
     inkscape:pageopacity="0"
     inkscape:pageshadow="2"
     inkscape:window-width="1440"
     inkscape:window-height="878"
     id="namedview4666"
     showgrid="false"
     inkscape:zoom="2.4798082"
     inkscape:cx="-20.120242"
     inkscape:cy="115.04237"
     inkscape:window-x="0"
     inkscape:window-y="0"
     inkscape:window-maximized="1"
     inkscape:current-layer="svg4664" />
  <path
     style="fill:#45914e;stroke-width:1.33333337;fill-opacity:1"
     d="M 104.87718,240.60994 C 72.103762,236.49371 43.570639,220.05487 23.90855,193.9613 -5.1317803,155.42187 -7.9323521,104.22874 16.686829,61.951615 23.463404,50.31459 44.467757,29.419512 56.378835,22.46611 81.106052,8.0309537 108.80848,2.1298567 134.49914,5.8251297 183.1466,12.822439 221.96086,46.734761 234.5588,93.248015 c 4.2411,15.658725 4.28277,43.639485 0.088,59.115495 -9.57155,35.31306 -32.98472,62.96715 -66.37032,78.39224 -18.02682,8.32891 -43.73219,12.32431 -63.39931,9.85419 z m 66.59299,-44.74692 c 4.67641,-1.38875 6.90867,-2.75744 6.90867,-4.23601 0,-1.2014 -7.91014,-9.72815 -17.57808,-18.94835 -15.50146,-14.78353 -18.06111,-16.72093 -21.66667,-16.39952 -6.96216,0.62061 -21.56867,-10.45912 -40.165994,-30.46783 -11.208137,-12.05875 -14.758437,-18.51016 -12.504275,-22.7221 1.394014,-2.60473 0.01832,-4.376235 -15.611462,-20.103105 -9.427105,-9.48567 -18.169572,-17.81731 -19.427705,-18.51477 -5.363729,-2.97342 -9.500809,16.07602 -6.432488,29.61878 2.248788,9.925555 12.027675,29.373375 20.274868,40.321765 10.06297,13.35887 30.864026,33.59005 44.427046,43.20986 24.62724,17.46732 44.5614,23.35349 61.77609,18.24128 z m 17.40552,-13.25189 c 3.02673,-3.28362 5.50315,-7.00606 5.50315,-8.27211 0,-1.26604 -7.07755,-9.37945 -15.7279,-18.02979 -18.37461,-18.37461 -19.43038,-18.73694 -28.29054,-9.7091 l -5.907,6.0188 17.9442,17.9812 c 9.8693,9.88966 18.6261,17.98121 19.45957,17.98121 0.83345,0 3.99179,-2.6866 7.01852,-5.97021 z M 96.767891,92.197545 c 3.086015,-3.14442 5.610949,-6.88576 5.610949,-8.31407 0,-3.50792 -31.763058,-35.302122 -35.267532,-35.302122 -1.452481,0 -5.518928,2.834776 -9.036547,6.299502 l -6.395674,6.2995 18.332011,18.36717 c 10.082606,10.10194 18.965125,18.36716 19.73893,18.36716 0.773805,0 3.931844,-2.57271 7.017863,-5.71714 z"
     id="path4674"
     inkscape:connector-curvature="0" />
  <path
     style="fill:#ffffff;fill-opacity:1;stroke-width:0.40325698"
     d="M 150.49779,196.68898 C 138.87861,194.45956 127.44758,189.33539 114.01435,180.3346 104.21424,173.76814 95.883564,166.68363 83.922337,154.744 67.80847,138.65922 61.809539,130.73712 53.673703,114.79813 49.662063,106.93889 46.761819,100.02038 45.371875,94.994178 44.602947,92.21364 44.492012,90.795613 44.492012,83.747345 c 0,-7.072455 0.109494,-8.462213 0.889595,-11.291195 1.117393,-4.052147 2.377394,-6.587315 3.780009,-7.605515 l 1.0911,-0.792062 1.731699,1.135088 c 2.434245,1.595591 31.745227,31.02468 33.339853,33.474193 1.080124,1.659186 1.267739,2.266256 1.05934,3.427686 -0.754466,4.20471 -0.697086,5.58138 0.325751,7.81555 2.38662,5.21306 7.950345,11.9452 19.228531,23.26664 15.73067,15.79098 25.14598,22.44011 33.00486,23.30814 2.89298,0.31954 3.6669,0.57933 5.51248,1.85043 3.55103,2.44569 10.71638,9.06517 21.37299,19.74476 10.67361,10.69664 12.72919,13.13248 12.04765,14.2764 -0.59648,1.00114 -4.36854,2.76625 -8.02174,3.75371 -4.08353,1.10378 -14.92797,1.4275 -19.35634,0.57781 z"
     id="path1424"
     inkscape:connector-curvature="0" />
  <path
     style="fill:#ffffff;fill-opacity:1;stroke-width:0.40325698"
     d="M 86.080047,94.741571 C 84.248861,93.136592 75.789881,84.92527 67.282316,76.49419 L 51.814014,61.164954 56.518281,56.64626 c 4.964583,-4.768741 9.015969,-7.783465 10.450452,-7.776406 1.24855,0.0061 4.842201,2.842629 11.873653,9.371929 9.264712,8.603071 21.400214,21.678176 23.030334,24.813493 0.39753,0.764596 0.3332,1.212538 -0.37887,2.638334 -1.731167,3.466323 -10.094067,11.966102 -11.773403,11.966102 -0.171034,0 -1.809214,-1.313166 -3.6404,-2.918141 z"
     id="path1426"
     inkscape:connector-curvature="0" />
  <path
     style="fill:#ffffff;fill-opacity:1;stroke-width:0.40325698"
     d="m 176.87696,184.25915 c -2.52685,-2.27336 -10.82083,-10.29126 -18.43104,-17.81754 l -13.83676,-13.68416 4.9606,-4.99537 c 2.72833,-2.74745 5.63387,-5.34529 6.45675,-5.77299 2.4257,-1.26076 4.63886,-1.03208 7.42226,0.76692 6.39876,4.13572 30.80241,29.2638 30.80241,31.71679 0,0.29958 -0.90394,1.89618 -2.00874,3.54801 -2.03408,3.04118 -9.27413,10.37173 -10.24371,10.37173 -0.29011,0 -2.59491,-1.86003 -5.12177,-4.13339 z"
     id="path1428"
     inkscape:connector-curvature="0" />
</svg>
