<?xml version="1.0" encoding="UTF-8" standalone="no"?>
<!-- Created with Inkscape (http://www.inkscape.org/) -->

<svg
   xmlns:dc="http://purl.org/dc/elements/1.1/"
   xmlns:cc="http://creativecommons.org/ns#"
   xmlns:rdf="http://www.w3.org/1999/02/22-rdf-syntax-ns#"
   xmlns:svg="http://www.w3.org/2000/svg"
   xmlns="http://www.w3.org/2000/svg"
   xmlns:sodipodi="http://sodipodi.sourceforge.net/DTD/sodipodi-0.dtd"
   xmlns:inkscape="http://www.inkscape.org/namespaces/inkscape"
   version="1.1"
   id="svg4664"
   width="241.33333"
   height="241.33333"
   viewBox="0 0 241.33333 241.33333"
   sodipodi:docname="phoneIcon.svg"
   inkscape:version="0.92.2 5c3e80d, 2017-08-06">
  <metadata
     id="metadata4670">
    <rdf:RDF>
      <cc:Work
         rdf:about="">
        <dc:format>image/svg+xml</dc:format>
        <dc:type
           rdf:resource="http://purl.org/dc/dcmitype/StillImage" />
        <dc:title></dc:title>
      </cc:Work>
    </rdf:RDF>
  </metadata>
  <defs
     id="defs4668" />
  <sodipodi:namedview
     pagecolor="#ffffff"
     bordercolor="#666666"
     borderopacity="1"
     objecttolerance="10"
     gridtolerance="10"
     guidetolerance="10"
     inkscape:pageopacity="0"
     inkscape:pageshadow="2"
     inkscape:window-width="1444"
     inkscape:window-height="885"
     id="namedview4666"
     showgrid="false"
     inkscape:zoom="2.4798082"
     inkscape:cx="52.06276"
     inkscape:cy="115.04237"
     inkscape:window-x="0"
     inkscape:window-y="0"
     inkscape:window-maximized="0"
     inkscape:current-layer="svg4664" />
  <path
     style="fill:#45914e;stroke-width:1.33333337;fill-opacity:1"
     d="M 104.87718,240.60994 C 72.103762,236.49371 43.570639,220.05487 23.90855,193.9613 -5.1317803,155.42187 -7.9323521,104.22874 16.686829,61.951615 23.463404,50.31459 44.467757,29.419512 56.378835,22.46611 81.106052,8.0309537 108.80848,2.1298567 134.49914,5.8251297 183.1466,12.822439 221.96086,46.734761 234.5588,93.248015 c 4.2411,15.658725 4.28277,43.639485 0.088,59.115495 -9.57155,35.31306 -32.98472,62.96715 -66.37032,78.39224 -18.02682,8.32891 -43.73219,12.32431 -63.39931,9.85419 z m 66.59299,-44.74692 c 4.67641,-1.38875 6.90867,-2.75744 6.90867,-4.23601 0,-1.2014 -7.91014,-9.72815 -17.57808,-18.94835 -15.50146,-14.78353 -18.06111,-16.72093 -21.66667,-16.39952 -6.96216,0.62061 -21.56867,-10.45912 -40.165994,-30.46783 -11.208137,-12.05875 -14.758437,-18.51016 -12.504275,-22.7221 1.394014,-2.60473 0.01832,-4.376235 -15.611462,-20.103105 -9.427105,-9.48567 -18.169572,-17.81731 -19.427705,-18.51477 -5.363729,-2.97342 -9.500809,16.07602 -6.432488,29.61878 2.248788,9.925555 12.027675,29.373375 20.274868,40.321765 10.06297,13.35887 30.864026,33.59005 44.427046,43.20986 24.62724,17.46732 44.5614,23.35349 61.77609,18.24128 z m 17.40552,-13.25189 c 3.02673,-3.28362 5.50315,-7.00606 5.50315,-8.27211 0,-1.26604 -7.07755,-9.37945 -15.7279,-18.02979 -18.37461,-18.37461 -19.43038,-18.73694 -28.29054,-9.7091 l -5.907,6.0188 17.9442,17.9812 c 9.8693,9.88966 18.6261,17.98121 19.45957,17.98121 0.83345,0 3.99179,-2.6866 7.01852,-5.97021 z M 96.767891,92.197545 c 3.086015,-3.14442 5.610949,-6.88576 5.610949,-8.31407 0,-3.50792 -31.763058,-35.302122 -35.267532,-35.302122 -1.452481,0 -5.518928,2.834776 -9.036547,6.299502 l -6.395674,6.2995 18.332011,18.36717 c 10.082606,10.10194 18.965125,18.36716 19.73893,18.36716 0.773805,0 3.931844,-2.57271 7.017863,-5.71714 z"
     id="path4674"
     inkscape:connector-curvature="0" />
</svg>
