<?xml version="1.0" encoding="UTF-8" standalone="no"?>
<!-- Created with Inkscape (http://www.inkscape.org/) -->

<svg
   xmlns:dc="http://purl.org/dc/elements/1.1/"
   xmlns:cc="http://creativecommons.org/ns#"
   xmlns:rdf="http://www.w3.org/1999/02/22-rdf-syntax-ns#"
   xmlns:svg="http://www.w3.org/2000/svg"
   xmlns="http://www.w3.org/2000/svg"
   xmlns:sodipodi="http://sodipodi.sourceforge.net/DTD/sodipodi-0.dtd"
   xmlns:inkscape="http://www.inkscape.org/namespaces/inkscape"
   version="1.1"
   id="svg83"
   width="241.33333"
   height="241.33333"
   viewBox="0 0 241.33333 241.33333"
   sodipodi:docname="websiteIcon.svg"
   inkscape:version="0.92.2 5c3e80d, 2017-08-06">
  <metadata
     id="metadata89">
    <rdf:RDF>
      <cc:Work
         rdf:about="">
        <dc:format>image/svg+xml</dc:format>
        <dc:type
           rdf:resource="http://purl.org/dc/dcmitype/StillImage" />
        <dc:title></dc:title>
      </cc:Work>
    </rdf:RDF>
  </metadata>
  <defs
     id="defs87" />
  <sodipodi:namedview
     pagecolor="#ffffff"
     bordercolor="#666666"
     borderopacity="1"
     objecttolerance="10"
     gridtolerance="10"
     guidetolerance="10"
     inkscape:pageopacity="0"
     inkscape:pageshadow="2"
     inkscape:window-width="1445"
     inkscape:window-height="883"
     id="namedview85"
     showgrid="false"
     inkscape:zoom="2.7555249"
     inkscape:cx="55.724279"
     inkscape:cy="120.73147"
     inkscape:window-x="0"
     inkscape:window-y="0"
     inkscape:window-maximized="0"
     inkscape:current-layer="svg83" />
  <path
     style="fill:#45914e;fill-opacity:1;stroke-width:1.33333337"
     d="M 95.114148,239.34334 C 59.527598,232.91859 27.809547,208.21947 11.502166,174.23398 4.3821937,159.39557 1.1712784,146.50497 0.19151638,128.82606 -1.163722,104.37202 4.6863353,80.524264 17.33803,58.92829 23.959877,47.62504 46.363782,25.949812 58.462335,19.141533 c 37.690845,-21.2099524 80.772575,-21.2099524 118.463415,0 13.17099,7.411774 33.63653,27.471316 41.16791,40.351205 28.81786,49.283262 21.49689,108.858512 -18.24791,148.494312 -26.69272,26.61952 -65.91847,38.36357 -104.731602,31.35629 z m 45.679282,-44.59517 c 9.39153,-2.9751 22.03204,-11.00416 30.22873,-19.20084 20.01662,-20.01663 26.88776,-50.55934 17.52375,-77.894276 -10.50053,-30.65262 -38.62323,-50.826982 -70.85187,-50.826982 -32.22864,0 -60.351327,20.174362 -70.851863,50.826982 -9.364017,27.334936 -2.492875,57.877646 17.523746,77.894276 8.236074,8.23606 20.838393,16.22461 30.357148,19.24321 11.768839,3.73216 34.220369,3.71151 46.070359,-0.0424 z m -32.72573,-9.21962 c -6.11822,-3.72572 -17.019274,-19.83465 -14.874008,-21.97992 0.637131,-0.63713 19.009088,-3.20969 19.548918,-2.73737 0.21004,0.18379 0.21004,6.40856 0,13.83285 l -0.3819,13.4987 z m 14.29301,-11.45901 c 0,-12.7766 0.21748,-14.02952 2.33333,-13.44255 1.28334,0.35602 5.78334,1.03962 10,1.51912 4.51356,0.51327 7.66152,1.51783 7.65416,2.44256 -0.0419,5.2553 -14.57297,23.57072 -18.70055,23.57072 -0.74584,0 -1.28694,-5.92413 -1.28694,-14.08985 z m -41.181399,3.31287 c -4.483565,-2.99402 -8.151937,-5.98596 -8.151937,-6.64878 0,-0.66281 2.24062,-2.1413 4.979156,-3.28554 3.722661,-1.55543 5.113985,-1.67594 5.513446,-0.47755 0.29386,0.88157 2.22119,4.80972 4.282956,8.72919 2.061766,3.91948 3.249087,7.12633 2.638491,7.12633 -0.610596,0 -4.778547,-2.44964 -9.262112,-5.44365 z m 66.830439,-2.88968 c 2.25657,-4.58334 4.22123,-8.49588 4.36589,-8.69454 0.14467,-0.19866 2.84111,0.73371 5.99211,2.07195 l 5.72907,2.43313 -6.53472,4.74564 c -6.29919,4.57458 -11.6555,7.77715 -13.00731,7.77715 -0.35635,0 1.19839,-3.75 3.45496,-8.33333 z m -86.436787,-17.1918 c -4.006598,-6.34687 -7.735301,-16.59974 -9.022101,-24.8082 l -0.888334,-5.66667 h 11.934059 11.934059 l 0.810175,6.33333 c 0.445597,3.48334 1.412149,10.15355 2.147896,14.8227 0.735746,4.66914 1.145636,8.68144 0.910866,8.91621 -0.543268,0.54327 -13.077941,5.92776 -13.799357,5.92776 -0.296669,0 -2.108939,-2.48631 -4.027263,-5.52513 z m 101.458457,2.60809 c -3.66446,-1.44675 -6.84424,-2.81205 -7.0662,-3.03401 -0.22196,-0.22196 0.1984,-4.22378 0.93414,-8.89292 0.73575,-4.66915 1.70231,-11.33936 2.1479,-14.8227 l 0.81018,-6.33333 h 11.9183 c 13.46252,0 12.84145,-0.75038 9.85736,11.90977 -1.78455,7.57103 -8.49898,21.73739 -11.02079,23.2521 -0.50505,0.30334 -3.91645,-0.63216 -7.58089,-2.07891 z M 87.896508,148.66071 c -0.728265,-2.84238 -1.730658,-8.91798 -2.227542,-13.50132 l -0.903424,-8.33333 h 14.130913 14.130925 v 12.66667 12.66666 h -5.81391 c -3.19764,0 -8.554165,0.3756 -11.903375,0.83466 l -6.089468,0.83465 z m 42.130872,3.8467 -7.66667,-0.4811 v -12.60012 -12.60013 h 14.13092 14.13091 l -0.90342,8.33333 c -0.49689,4.58334 -1.47893,10.58334 -2.18232,13.33334 -1.41172,5.51938 0.28176,5.1311 -17.50942,4.01468 z M 52.411161,112.49273 c 1.425725,-8.50716 4.881104,-18.056286 8.893512,-24.577696 l 3.841952,-6.24437 6.679597,3.09471 c 3.673779,1.70208 6.959955,3.37506 7.302615,3.71772 0.342658,0.34265 -0.04487,5.06 -0.861156,10.48299 -0.816296,5.422986 -1.756492,11.809976 -2.089324,14.193316 l -0.605151,4.33333 h -12 -12 z m 32.626285,2.66667 c 0.01293,-3.00653 2.5323,-18.923446 3.500541,-22.116206 0.654647,-2.15868 1.717296,-2.34825 8.949458,-1.59652 4.513625,0.46916 9.856605,1.16913 11.873265,1.55548 l 3.66667,0.70246 v 11.894056 11.89406 H 99.027375 c -12.448283,0 -13.998885,-0.25862 -13.989929,-2.33333 z m 37.323264,-9.54947 V 93.727134 l 5,-0.72828 c 2.75,-0.40055 8.09413,-1.10191 11.87585,-1.55857 7.86375,-0.94959 7.485,-1.44469 9.7302,12.719116 2.28892,14.43964 3.33488,13.33333 -12.60605,13.33333 h -14 z m 36.84284,7.54947 c -0.33623,-2.38334 -1.31131,-9.03545 -2.16684,-14.782466 -0.85552,-5.74702 -1.35761,-10.55899 -1.11575,-10.69327 0.24186,-0.13427 3.41058,-1.63306 7.04159,-3.33065 6.36093,-2.97389 6.66889,-2.99725 8.43969,-0.64006 5.22278,6.95229 9.33316,17.519036 11.45446,29.446446 l 0.77068,4.33333 H 171.72112 159.81488 Z M 100.05214,82.906164 c -3.10305,-0.5057 -6.021733,-1.29928 -6.485966,-1.76352 -1.476912,-1.47691 4.766771,-12.63309 10.208416,-18.24032 8.27499,-8.526806 9.25279,-7.689451 9.25279,7.92375 v 13.33333 l -3.66667,-0.16689 c -2.01666,-0.0918 -6.20552,-0.58064 -9.30857,-1.08635 z m 22.30857,-12.64091 V 56.008642 l 4.01498,2.371708 c 8.23778,4.866174 18.16918,20.906704 14.41714,23.285564 -0.971,0.61563 -2.73171,1.12851 -3.91269,1.13974 -1.18098,0.0112 -4.93098,0.40197 -8.33333,0.86832 l -6.1861,0.84789 z m -45.000003,6.89849 c -2.383333,-0.76456 -4.333333,-1.79872 -4.333333,-2.29813 0,-1.93846 15.0748,-13.37288 17.630397,-13.37288 0.556255,0 -0.911805,3.9 -3.262355,8.66667 -2.35055,4.76667 -4.594948,8.60541 -4.987552,8.53055 -0.392602,-0.0749 -2.663823,-0.76166 -5.047157,-1.52621 z m 70.631963,-7.00434 c -2.35055,-4.76667 -3.81861,-8.66667 -3.26236,-8.66667 1.22548,0 10.25931,5.98124 15.2498,10.09679 l 3.61939,2.98483 -5.31304,2.12586 c -2.92218,1.16922 -5.47212,2.12586 -5.66655,2.12586 -0.19444,0 -2.27669,-3.9 -4.62724,-8.66667 z"
     id="path3782"
     inkscape:connector-curvature="0" />
</svg>
