<?xml version="1.0" encoding="UTF-8" standalone="no"?>
<!-- Created with Inkscape (http://www.inkscape.org/) -->

<svg
   xmlns:dc="http://purl.org/dc/elements/1.1/"
   xmlns:cc="http://creativecommons.org/ns#"
   xmlns:rdf="http://www.w3.org/1999/02/22-rdf-syntax-ns#"
   xmlns:svg="http://www.w3.org/2000/svg"
   xmlns="http://www.w3.org/2000/svg"
   xmlns:sodipodi="http://sodipodi.sourceforge.net/DTD/sodipodi-0.dtd"
   xmlns:inkscape="http://www.inkscape.org/namespaces/inkscape"
   version="1.1"
   id="svg83"
   width="241.33333"
   height="241.33333"
   viewBox="0 0 241.33333 241.33333"
   sodipodi:docname="websiteIcon.svg"
   inkscape:version="0.92.2 5c3e80d, 2017-08-06">
  <metadata
     id="metadata89">
    <rdf:RDF>
      <cc:Work
         rdf:about="">
        <dc:format>image/svg+xml</dc:format>
        <dc:type
           rdf:resource="http://purl.org/dc/dcmitype/StillImage" />
        <dc:title />
      </cc:Work>
    </rdf:RDF>
  </metadata>
  <defs
     id="defs87" />
  <sodipodi:namedview
     pagecolor="#ffffff"
     bordercolor="#666666"
     borderopacity="1"
     objecttolerance="10"
     gridtolerance="10"
     guidetolerance="10"
     inkscape:pageopacity="0"
     inkscape:pageshadow="2"
     inkscape:window-width="1440"
     inkscape:window-height="878"
     id="namedview85"
     showgrid="false"
     inkscape:zoom="2.7555249"
     inkscape:cx="55.724279"
     inkscape:cy="120.73147"
     inkscape:window-x="0"
     inkscape:window-y="0"
     inkscape:window-maximized="1"
     inkscape:current-layer="svg83" />
  <path
     style="fill:#45914e;fill-opacity:1;stroke-width:1.33333337"
     d="M 95.114148,239.34334 C 59.527598,232.91859 27.809547,208.21947 11.502166,174.23398 4.3821937,159.39557 1.1712784,146.50497 0.19151638,128.82606 -1.163722,104.37202 4.6863353,80.524264 17.33803,58.92829 23.959877,47.62504 46.363782,25.949812 58.462335,19.141533 c 37.690845,-21.2099524 80.772575,-21.2099524 118.463415,0 13.17099,7.411774 33.63653,27.471316 41.16791,40.351205 28.81786,49.283262 21.49689,108.858512 -18.24791,148.494312 -26.69272,26.61952 -65.91847,38.36357 -104.731602,31.35629 z m 45.679282,-44.59517 c 9.39153,-2.9751 22.03204,-11.00416 30.22873,-19.20084 20.01662,-20.01663 26.88776,-50.55934 17.52375,-77.894276 -10.50053,-30.65262 -38.62323,-50.826982 -70.85187,-50.826982 -32.22864,0 -60.351327,20.174362 -70.851863,50.826982 -9.364017,27.334936 -2.492875,57.877646 17.523746,77.894276 8.236074,8.23606 20.838393,16.22461 30.357148,19.24321 11.768839,3.73216 34.220369,3.71151 46.070359,-0.0424 z m -32.72573,-9.21962 c -6.11822,-3.72572 -17.019274,-19.83465 -14.874008,-21.97992 0.637131,-0.63713 19.009088,-3.20969 19.548918,-2.73737 0.21004,0.18379 0.21004,6.40856 0,13.83285 l -0.3819,13.4987 z m 14.29301,-11.45901 c 0,-12.7766 0.21748,-14.02952 2.33333,-13.44255 1.28334,0.35602 5.78334,1.03962 10,1.51912 4.51356,0.51327 7.66152,1.51783 7.65416,2.44256 -0.0419,5.2553 -14.57297,23.57072 -18.70055,23.57072 -0.74584,0 -1.28694,-5.92413 -1.28694,-14.08985 z m -41.181399,3.31287 c -4.483565,-2.99402 -8.151937,-5.98596 -8.151937,-6.64878 0,-0.66281 2.24062,-2.1413 4.979156,-3.28554 3.722661,-1.55543 5.113985,-1.67594 5.513446,-0.47755 0.29386,0.88157 2.22119,4.80972 4.282956,8.72919 2.061766,3.91948 3.249087,7.12633 2.638491,7.12633 -0.610596,0 -4.778547,-2.44964 -9.262112,-5.44365 z m 66.830439,-2.88968 c 2.25657,-4.58334 4.22123,-8.49588 4.36589,-8.69454 0.14467,-0.19866 2.84111,0.73371 5.99211,2.07195 l 5.72907,2.43313 -6.53472,4.74564 c -6.29919,4.57458 -11.6555,7.77715 -13.00731,7.77715 -0.35635,0 1.19839,-3.75 3.45496,-8.33333 z m -86.436787,-17.1918 c -4.006598,-6.34687 -7.735301,-16.59974 -9.022101,-24.8082 l -0.888334,-5.66667 h 11.934059 11.934059 l 0.810175,6.33333 c 0.445597,3.48334 1.412149,10.15355 2.147896,14.8227 0.735746,4.66914 1.145636,8.68144 0.910866,8.91621 -0.543268,0.54327 -13.077941,5.92776 -13.799357,5.92776 -0.296669,0 -2.108939,-2.48631 -4.027263,-5.52513 z m 101.458457,2.60809 c -3.66446,-1.44675 -6.84424,-2.81205 -7.0662,-3.03401 -0.22196,-0.22196 0.1984,-4.22378 0.93414,-8.89292 0.73575,-4.66915 1.70231,-11.33936 2.1479,-14.8227 l 0.81018,-6.33333 h 11.9183 c 13.46252,0 12.84145,-0.75038 9.85736,11.90977 -1.78455,7.57103 -8.49898,21.73739 -11.02079,23.2521 -0.50505,0.30334 -3.91645,-0.63216 -7.58089,-2.07891 z M 87.896508,148.66071 c -0.728265,-2.84238 -1.730658,-8.91798 -2.227542,-13.50132 l -0.903424,-8.33333 h 14.130913 14.130925 v 12.66667 12.66666 h -5.81391 c -3.19764,0 -8.554165,0.3756 -11.903375,0.83466 l -6.089468,0.83465 z m 42.130872,3.8467 -7.66667,-0.4811 v -12.60012 -12.60013 h 14.13092 14.13091 l -0.90342,8.33333 c -0.49689,4.58334 -1.47893,10.58334 -2.18232,13.33334 -1.41172,5.51938 0.28176,5.1311 -17.50942,4.01468 z M 52.411161,112.49273 c 1.425725,-8.50716 4.881104,-18.056286 8.893512,-24.577696 l 3.841952,-6.24437 6.679597,3.09471 c 3.673779,1.70208 6.959955,3.37506 7.302615,3.71772 0.342658,0.34265 -0.04487,5.06 -0.861156,10.48299 -0.816296,5.422986 -1.756492,11.809976 -2.089324,14.193316 l -0.605151,4.33333 h -12 -12 z m 32.626285,2.66667 c 0.01293,-3.00653 2.5323,-18.923446 3.500541,-22.116206 0.654647,-2.15868 1.717296,-2.34825 8.949458,-1.59652 4.513625,0.46916 9.856605,1.16913 11.873265,1.55548 l 3.66667,0.70246 v 11.894056 11.89406 H 99.027375 c -12.448283,0 -13.998885,-0.25862 -13.989929,-2.33333 z m 37.323264,-9.54947 V 93.727134 l 5,-0.72828 c 2.75,-0.40055 8.09413,-1.10191 11.87585,-1.55857 7.86375,-0.94959 7.485,-1.44469 9.7302,12.719116 2.28892,14.43964 3.33488,13.33333 -12.60605,13.33333 h -14 z m 36.84284,7.54947 c -0.33623,-2.38334 -1.31131,-9.03545 -2.16684,-14.782466 -0.85552,-5.74702 -1.35761,-10.55899 -1.11575,-10.69327 0.24186,-0.13427 3.41058,-1.63306 7.04159,-3.33065 6.36093,-2.97389 6.66889,-2.99725 8.43969,-0.64006 5.22278,6.95229 9.33316,17.519036 11.45446,29.446446 l 0.77068,4.33333 H 171.72112 159.81488 Z M 100.05214,82.906164 c -3.10305,-0.5057 -6.021733,-1.29928 -6.485966,-1.76352 -1.476912,-1.47691 4.766771,-12.63309 10.208416,-18.24032 8.27499,-8.526806 9.25279,-7.689451 9.25279,7.92375 v 13.33333 l -3.66667,-0.16689 c -2.01666,-0.0918 -6.20552,-0.58064 -9.30857,-1.08635 z m 22.30857,-12.64091 V 56.008642 l 4.01498,2.371708 c 8.23778,4.866174 18.16918,20.906704 14.41714,23.285564 -0.971,0.61563 -2.73171,1.12851 -3.91269,1.13974 -1.18098,0.0112 -4.93098,0.40197 -8.33333,0.86832 l -6.1861,0.84789 z m -45.000003,6.89849 c -2.383333,-0.76456 -4.333333,-1.79872 -4.333333,-2.29813 0,-1.93846 15.0748,-13.37288 17.630397,-13.37288 0.556255,0 -0.911805,3.9 -3.262355,8.66667 -2.35055,4.76667 -4.594948,8.60541 -4.987552,8.53055 -0.392602,-0.0749 -2.663823,-0.76166 -5.047157,-1.52621 z m 70.631963,-7.00434 c -2.35055,-4.76667 -3.81861,-8.66667 -3.26236,-8.66667 1.22548,0 10.25931,5.98124 15.2498,10.09679 l 3.61939,2.98483 -5.31304,2.12586 c -2.92218,1.16922 -5.47212,2.12586 -5.66655,2.12586 -0.19444,0 -2.27669,-3.9 -4.62724,-8.66667 z"
     id="path3782"
     inkscape:connector-curvature="0" />
  <path
     style="fill:#ffffff;fill-opacity:1;stroke-width:0.36290726"
     d="M 110.37212,197.16516 C 98.174307,196.3928 89.980326,193.74664 79.635012,187.23894 66.120664,178.73775 56.714226,168.53136 50.496505,155.62241 33.827812,121.01562 45.319977,79.681335 77.425672,58.765299 92.141341,49.178419 111.36389,45.125143 129.06784,47.876007 c 24.34111,3.782158 44.72453,18.793126 55.54071,40.901871 3.89786,7.967408 6.431,16.684272 7.44814,25.630052 0.55271,4.86113 0.24553,16.14377 -0.55892,20.52877 -2.01235,10.96919 -5.76805,20.58305 -11.34173,29.03258 -7.45846,11.3068 -18.63888,20.92842 -31.85412,27.41294 -7.63878,3.74824 -13.26255,5.10106 -24.07201,5.79065 -6.16506,0.39329 -7.53674,0.39253 -13.85779,-0.008 z m 16.9277,-10.91298 c 4.77261,-3.68204 13.0119,-14.71867 14.69111,-19.67892 0.71151,-2.10173 0.62405,-2.53178 -0.63118,-3.1037 -1.60736,-0.73236 -8.36387,-1.89272 -16.52704,-2.83834 l -1.69477,-0.19633 -0.38992,1.40429 c -0.81249,2.92617 -0.37037,24.83362 0.5306,26.29142 0.29724,0.48094 1.98486,-0.30739 4.0212,-1.87842 z m -14.62084,-3.86536 c 0.13039,-3.14368 0.23761,-9.3624 0.23828,-13.81936 l 0.001,-8.10357 -2.44962,0.23841 c -3.97612,0.38699 -14.675883,1.96001 -16.149373,2.37419 -1.378268,0.38742 -1.498296,0.57291 -1.369344,2.11617 0.273229,3.26996 7.201897,13.59225 12.173507,18.13602 1.75118,1.60048 6.46305,4.76605 7.10293,4.77194 0.11845,0.001 0.32204,-2.57012 0.45243,-5.7138 z m -22.039956,-0.54436 c -0.128052,-0.6487 -1.868511,-4.50646 -3.867691,-8.57282 l -3.634872,-7.39337 -1.530551,0.23561 c -0.841806,0.12958 -3.081982,1.00697 -4.978173,1.94976 -4.460064,2.21754 -4.543782,2.5842 -1.200419,5.25755 4.604181,3.68148 13.982108,9.70272 15.111758,9.70272 0.183025,0 0.228,-0.53075 0.09995,-1.17945 z m 58.950726,-1.31344 c 3.6776,-2.19901 14.49864,-9.80851 14.49864,-10.19564 0,-0.36835 -10.69127,-4.73102 -11.59395,-4.73102 -0.39162,0 -7.59445,14.90546 -7.86782,16.28159 -0.22983,1.1569 -0.19691,1.20772 0.62766,0.96902 0.47861,-0.13855 2.42957,-1.18433 4.33547,-2.32395 z m -77.3169,-20.19858 c 7.879479,-3.38832 7.257376,-3.0034 7.263477,-4.4941 0.0048,-1.16521 -3.536507,-27.49766 -3.84776,-28.61142 -0.09814,-0.3512 -2.833788,-0.45364 -12.114101,-0.45364 -9.349209,0 -11.9868,0.0998 -11.984923,0.45364 0.0013,0.24949 0.317522,2.28376 0.702663,4.52059 1.982354,11.51315 5.930373,21.40899 11.740558,29.4281 1.629724,2.24932 0.86708,2.32736 8.240086,-0.84317 z m 99.54468,0.54147 c 3.05213,-3.56573 8.24708,-15.43946 10.29194,-23.52357 1.57758,-6.23681 1.70763,-8.42614 0.56833,-9.56778 -0.81887,-0.82056 -0.92303,-0.82875 -11.86596,-0.93353 l -11.03983,-0.1057 -0.18853,1.19442 c -1.13798,7.2097 -3.86893,27.6682 -3.77836,28.30493 0.0932,0.65543 0.76207,1.10861 3.20257,2.16997 3.62152,1.57498 9.36887,3.54796 11.31257,3.88345 0.13415,0.0232 0.80792,-0.61683 1.49727,-1.42219 z m -78.677512,-7.43383 c 1.99599,-0.29542 7.344332,-0.73445 11.885212,-0.97562 l 8.25614,-0.43848 V 139.39763 126.77128 H 98.946534 c -7.88416,0 -14.334097,0.12248 -14.333193,0.27218 0.0058,0.96007 1.551893,13.19008 2.007171,15.87719 0.73447,4.33496 2.348025,11.07048 2.649909,11.06162 0.132287,-0.004 1.873607,-0.24876 3.869597,-0.54419 z m 52.924922,-0.99111 c 1.00047,-0.91974 1.60778,-3.11141 2.74029,-9.88922 0.70694,-4.23085 1.85559,-13.54296 1.85559,-15.0433 0,-0.73625 -0.13178,-0.74317 -14.15338,-0.74317 h -14.15339 v 12.70176 c 0,11.84396 0.0429,12.7037 0.63509,12.73064 0.3493,0.0159 3.57464,0.2379 7.16742,0.49334 3.59278,0.25544 8.4421,0.4874 10.77625,0.51547 3.93368,0.0473 4.30886,-0.009 5.13213,-0.76552 z M 76.138703,114.61389 C 79.721605,89.742395 79.797221,89.019444 78.900597,88.208008 78.291209,87.65652 74.872062,85.969491 67.668755,82.666149 l -2.608105,-1.196043 -2.986429,4.920183 c -3.45436,5.691105 -6.041101,11.542712 -7.800066,17.644951 -1.144001,3.96879 -2.687019,11.43742 -2.687019,13.00591 0,0.63625 0.560381,0.6628 12.066667,0.57162 l 12.066666,-0.0956 z m 37.056837,-8.97784 -0.0956,-12.062556 -3.26617,-0.617505 c -1.79639,-0.339623 -6.56607,-0.984415 -10.599289,-1.432866 -8.176261,-0.909112 -9.766912,-0.792281 -10.510585,0.771969 -0.586945,1.234588 -1.696548,6.914254 -2.817358,14.421068 -1.085663,7.2714 -1.160248,9.25244 -0.372946,9.90584 0.909733,0.75501 4.416603,0.97445 16.411838,1.02695 l 11.34574,0.0496 z m 34.18182,11.66945 c 3.47212,-0.74464 3.60343,-2.03241 1.49128,-14.62452 -2.02223,-12.05594 -2.14909,-12.231994 -8.31989,-11.546364 -2.12292,0.235875 -7.0852,0.870691 -11.02728,1.410704 l -7.16742,0.981842 v 12.085718 12.08572 h 11.59517 c 6.95381,0 12.32888,-0.15735 13.42814,-0.3931 z m 36.30487,-0.24199 c -0.008,-1.64759 -2.29877,-11.65808 -3.633,-15.87719 -2.42734,-7.675765 -7.49514,-17.281078 -9.97477,-18.905796 -0.86604,-0.56745 -1.04096,-0.557557 -3.04194,0.172039 -1.16769,0.42576 -4.18586,1.760849 -6.70703,2.966866 l -4.58397,2.192758 v 1.353608 c 0,1.210441 3.33339,25.263635 3.8436,27.734815 l 0.20605,0.99799 h 11.94711 c 11.13745,0 11.94689,-0.043 11.94395,-0.63509 z M 132.00276,83.446309 c 4.473,-0.533822 7.73332,-1.099338 8.4376,-1.463533 1.06845,-0.552521 1.14778,-0.725898 1.14778,-2.508681 0,-2.263987 -1.73382,-6.151487 -4.75738,-10.666811 -2.55182,-3.810845 -8.17331,-9.321284 -11.4875,-11.260563 -1.44971,-0.848295 -2.71535,-1.542356 -2.81253,-1.542356 -0.0972,0 -0.17668,6.468852 -0.17668,14.375226 v 14.375224 l 1.17945,-0.219254 c 0.6487,-0.120594 4.45987,-0.610755 8.46926,-1.089252 z m -18.73075,-8.117132 c -0.0105,-10.082043 -0.43192,-15.751799 -1.26531,-17.02371 -1.20672,-1.841689 -3.16061,-0.777745 -8.1717,4.449704 -4.876955,5.08753 -10.025291,13.483602 -10.421078,16.995035 l -0.18072,1.603336 1.871625,0.555813 c 3.71514,1.10328 11.730893,2.280207 16.089823,2.36242 l 2.08672,0.03936 z m -29.270233,1.451629 c 2.75365,-4.570665 6.779344,-13.281726 6.779344,-14.669585 0,-0.856446 -0.415449,-0.835762 -2.282629,0.113649 -4.963385,2.523747 -15.499827,11.008022 -15.499827,12.480948 0,0.283745 0.422244,0.792565 0.93832,1.130711 0.903023,0.591683 7.502888,2.960573 8.380267,3.007928 0.235044,0.01269 0.993081,-0.915957 1.684525,-2.063651 z m 74.370823,0.04697 c 2.94408,-1.13026 5.34703,-2.154373 5.33987,-2.275808 -0.0267,-0.454339 -7.62104,-6.279782 -11.99084,-9.197975 -4.66513,-3.11541 -6.70561,-4.188708 -7.13913,-3.755193 -0.13669,0.136689 0.0449,1.097693 0.40351,2.135565 0.96549,2.794183 7.196,15.131925 7.64604,15.140792 0.21322,0.0042 2.79646,-0.917121 5.74055,-2.047381 z"
     id="path844"
     inkscape:connector-curvature="0" />
</svg>
